<svg width="22" height="23" viewBox="0 0 22 23" fill="none" xmlns="http://www.w3.org/2000/svg">
<g filter="url(#filter0_d_1_219)">
<path d="M14.6 14.6667C11.8782 14.6631 9.26886 13.5803 7.34425 11.6557C5.41964 9.73112 4.33684 7.1218 4.33331 4.39999C4.33331 3.58666 4.65641 2.80665 5.23152 2.23153C5.80663 1.65642 6.58665 1.33333 7.39998 1.33333C7.57221 1.33202 7.74415 1.34765 7.91331 1.37999C8.07685 1.4042 8.23762 1.44439 8.39331 1.49999C8.50281 1.53841 8.60039 1.60475 8.67639 1.69244C8.75239 1.78014 8.80418 1.88615 8.82665 1.99999L9.73998 5.99999C9.7646 6.10857 9.76163 6.22158 9.73136 6.32872C9.70108 6.43585 9.64445 6.5337 9.56665 6.61333C9.47998 6.70666 9.47331 6.71333 8.65331 7.13999C9.30998 8.58057 10.4621 9.73743 11.9 10.4C12.3333 9.57333 12.34 9.56666 12.4333 9.47999C12.5129 9.40219 12.6108 9.34556 12.7179 9.31528C12.8251 9.28501 12.9381 9.28204 13.0466 9.30666L17.0466 10.22C17.1568 10.2456 17.2587 10.2988 17.3427 10.3746C17.4267 10.4504 17.49 10.5463 17.5266 10.6533C17.5829 10.8116 17.6253 10.9744 17.6533 11.14C17.6801 11.3075 17.6935 11.477 17.6933 11.6467C17.681 12.4565 17.3488 13.2286 16.7693 13.7944C16.1897 14.3602 15.4099 14.6738 14.6 14.6667ZM7.39998 2.66666C6.94081 2.66842 6.50095 2.8516 6.17627 3.17628C5.85158 3.50097 5.6684 3.94083 5.66665 4.39999C5.66841 6.76872 6.61017 9.03992 8.28511 10.7149C9.96005 12.3898 12.2313 13.3316 14.6 13.3333C15.0591 13.3316 15.499 13.1484 15.8237 12.8237C16.1484 12.499 16.3316 12.0592 16.3333 11.6V11.38L13.24 10.6667L13.0466 11.0333C12.7466 11.6133 12.5266 12.0333 11.9666 11.8067C10.8619 11.4112 9.85911 10.7747 9.03114 9.94325C8.20316 9.11181 7.5708 8.10638 7.17998 6.99999C6.93998 6.47999 7.39331 6.23999 7.96665 5.93999L8.33331 5.75999L7.61998 2.66666H7.39998Z" fill="#969696"/>
</g>
<defs>
<filter id="filter0_d_1_219" x="-1" y="0" width="24" height="24" filterUnits="userSpaceOnUse" color-interpolation-filters="sRGB">
<feFlood flood-opacity="0" result="BackgroundImageFix"/>
<feColorMatrix in="SourceAlpha" type="matrix" values="0 0 0 0 0 0 0 0 0 0 0 0 0 0 0 0 0 0 127 0" result="hardAlpha"/>
<feOffset dy="4"/>
<feGaussianBlur stdDeviation="2"/>
<feComposite in2="hardAlpha" operator="out"/>
<feColorMatrix type="matrix" values="0 0 0 0 0 0 0 0 0 0 0 0 0 0 0 0 0 0 0.25 0"/>
<feBlend mode="normal" in2="BackgroundImageFix" result="effect1_dropShadow_1_219"/>
<feBlend mode="normal" in="SourceGraphic" in2="effect1_dropShadow_1_219" result="shape"/>
</filter>
</defs>
</svg>
