<svg width="22" height="22" viewBox="0 0 22 22" fill="none" xmlns="http://www.w3.org/2000/svg">
<path d="M19.25 17.4167L14.5255 12.6922C15.3989 11.3648 15.7487 9.76053 15.5072 8.18999C15.2657 6.61945 14.4501 5.19437 13.2182 4.19068C11.9863 3.18698 10.4258 2.67606 8.83889 2.75684C7.25194 2.83762 5.75141 3.50434 4.62782 4.62794C3.50422 5.75153 2.83749 7.25206 2.75672 8.83901C2.67594 10.426 3.18686 11.9864 4.19055 13.2183C5.19425 14.4502 6.61933 15.2658 8.18987 15.5073C9.76041 15.7488 11.3647 15.399 12.6921 14.5256L17.4166 19.2501L19.25 17.4167ZM4.58329 9.16675C4.58329 6.6395 6.63938 4.58341 9.16663 4.58341C11.6939 4.58341 13.75 6.6395 13.75 9.16675C13.75 11.694 11.6939 13.7501 9.16663 13.7501C6.63938 13.7501 4.58329 11.694 4.58329 9.16675Z" fill="white"/>
</svg>
